<svg viewBox="0 0 24 24" xmlns="http://www.w3.org/2000/svg">
  <!-- File background -->
  <path d="M4 2C2.9 2 2 2.9 2 4v16c0 1.1.9 2 2 2h16c1.1 0 2-.9 2-2V8l-6-6H4z" fill="#2496ED" stroke="#999" stroke-width="0.5"/>
  <!-- Top right fold -->
  <path d="M14 2v6h6V8l-6-6z" fill="#39A9E8" stroke="#999" stroke-width="0.5"/>
  <!-- Docker whale -->
  <path d="M 9 12 L 9.5 10.5 L 10.5 11 L 11 9.5 L 12 10 L 12.5 8.5 L 13.5 9 L 14 11 L 15 10.5 L 15.5 12" 
        fill="none" stroke="#fff" stroke-width="0.8"/>
  <path d="M 9 12 L 15.5 12 L 15.5 14 L 9 14 Z" fill="#fff" opacity="0.7"/>
</svg>
